/* XPM */
static char * qvd_xpm[] = {
"16 16 132 2",
"  	c None",
". 	c #241400",
"+ 	c #4F3715",
"@ 	c #332004",
"# 	c #201201",
"$ 	c #482C0C",
"% 	c #E5820E",
"& 	c #4D2E09",
"* 	c #381E00",
"= 	c #301900",
"- 	c #452F10",
"; 	c #735E45",
"> 	c #503919",
", 	c #261400",
"' 	c #342613",
") 	c #8E7451",
"! 	c #8C7250",
"~ 	c #D79631",
"{ 	c #FF9F17",
"] 	c #F07F00",
"^ 	c #532B01",
"/ 	c #392508",
"( 	c #5B4524",
"_ 	c #402B0D",
": 	c #E86F13",
"< 	c #AE9169",
"[ 	c #50402B",
"} 	c #281700",
"| 	c #BE7C00",
"1 	c #563401",
"2 	c #B56100",
"3 	c #874400",
"4 	c #1E1100",
"5 	c #271600",
"6 	c #231300",
"7 	c #FFAC65",
"8 	c #E9892B",
"9 	c #AD5B00",
"0 	c #D67D00",
"a 	c #8B5500",
"b 	c #562C00",
"c 	c #D36701",
"d 	c #2E1700",
"e 	c #1A1100",
"f 	c #1B1100",
"g 	c #331700",
"h 	c #F55306",
"i 	c #DE8038",
"j 	c #A84E02",
"k 	c #D86D00",
"l 	c #EF7F00",
"m 	c #DA7600",
"n 	c #864600",
"o 	c #AC5500",
"p 	c #3F1F00",
"q 	c #CC4F02",
"r 	c #D04200",
"s 	c #BE3900",
"t 	c #D63D00",
"u 	c #EB4C03",
"v 	c #301901",
"w 	c #1E1200",
"x 	c #301A00",
"y 	c #E06B00",
"z 	c #F17400",
"A 	c #C55F00",
"B 	c #321B00",
"C 	c #753000",
"D 	c #FC5701",
"E 	c #F64800",
"F 	c #EE4500",
"G 	c #792800",
"H 	c #371800",
"I 	c #E04802",
"J 	c #C85300",
"K 	c #BB5000",
"L 	c #2F1800",
"M 	c #E34E01",
"N 	c #E44500",
"O 	c #E74300",
"P 	c #CF3C00",
"Q 	c #2A1600",
"R 	c #E74803",
"S 	c #471D00",
"T 	c #4E1E00",
"U 	c #AC3D00",
"V 	c #291600",
"W 	c #221300",
"X 	c #8F3000",
"Y 	c #882D00",
"Z 	c #311700",
"` 	c #B93600",
" .	c #5E2100",
"..	c #2A1500",
"+.	c #E14100",
"@.	c #C93C00",
"#.	c #993000",
"$.	c #231400",
"%.	c #351700",
"&.	c #D94000",
"*.	c #301700",
"=.	c #221400",
"-.	c #6E2400",
";.	c #CF3B00",
">.	c #C83A00",
",.	c #E03F00",
"'.	c #882B00",
").	c #942E00",
"!.	c #E44100",
"~.	c #531E00",
"{.	c #1E1300",
"].	c #1F1200",
"^.	c #8B2C00",
"/.	c #C73A00",
"(.	c #C53900",
"_.	c #3D1A00",
":.	c #D53D00",
"<.	c #D83D00",
"[.	c #C93A00",
"}.	c #8A2B00",
"|.	c #9B2F00",
"1.	c #C63900",
"2.	c #321700",
"3.	c #932D00",
"4.	c #BD3600",
"5.	c #BC3700",
"6.	c #C73900",
"7.	c #9E3100",
"8.	c #2C1500",
"9.	c #A63401",
"0.	c #CE3E02",
"a.	c #D03E03",
"                        .       ",
"                      + @       ",
"        # $ % & * = - ; > , . . ",
"      ' ) ! ~ { ] ^ / ( _ .     ",
"    : < [ } | 1 2 3 4 5 . 6     ",
"    7 8 9 0 a 4 b c d e f g     ",
"  h i j k l m n o p q r s t     ",
"  u v w x y z A B C D E F G H   ",
"  I e . w J K L d M N O P Q .   ",
"  R S , T U V W X Y 6 Z `  ...  ",
"    +.@.#.$.. %.&.*.. =.-.;.>.  ",
"    ,.'.=.. $.).!.~.{.].^./.(.  ",
"        . . _.:.<.[.}.|.1.(.    ",
"          2.3.4.5.[.6.(.(.      ",
"            7.2.8.9.0.a.        ",
"                                "};
